<svg width="24" height="24" viewBox="0 0 24 24" fill="none" xmlns="http://www.w3.org/2000/svg">
<path fill-rule="evenodd" clip-rule="evenodd" d="M5.91957 3.84998H18.0804C18.6146 3.84997 19.0604 3.84996 19.4247 3.87972C19.8046 3.91075 20.1612 3.97786 20.4985 4.14971C21.0159 4.41336 21.4366 4.83406 21.7003 5.3515C21.8721 5.68877 21.9392 6.04542 21.9703 6.42531C22 6.78954 22 7.23538 22 7.76952V16.2304C22 16.7646 22 17.2104 21.9703 17.5746C21.9392 17.9545 21.8721 18.3112 21.7003 18.6485C21.4366 19.1659 21.0159 19.5866 20.4985 19.8502C20.1612 20.0221 19.8046 20.0892 19.4247 20.1202C19.0604 20.15 18.6146 20.15 18.0805 20.15H5.91955C5.3854 20.15 4.93956 20.15 4.57533 20.1202C4.19545 20.0892 3.83879 20.0221 3.50153 19.8502C2.98408 19.5866 2.56338 19.1659 2.29973 18.6485C2.12789 18.3112 2.06078 17.9545 2.02974 17.5746C1.99998 17.2104 1.99999 16.7646 2 16.2304V7.76954C1.99999 7.23539 1.99998 6.78954 2.02974 6.42531C2.06078 6.04542 2.12789 5.68877 2.29973 5.3515C2.56338 4.83406 2.98408 4.41336 3.50153 4.14971C3.83879 3.97786 4.19545 3.91075 4.57533 3.87972C4.93956 3.84996 5.38541 3.84997 5.91957 3.84998ZM4.69748 5.37473C4.41036 5.39819 4.27307 5.44008 4.18251 5.48622C3.94731 5.60606 3.75608 5.79729 3.63624 6.03249C3.5901 6.12305 3.54822 6.26033 3.52476 6.54745C3.50058 6.84333 3.5 7.22755 3.5 7.79998V8.475H5.87676C6.29098 8.475 6.62676 8.81079 6.62676 9.225V14.775C6.62676 15.1892 6.29098 15.525 5.87676 15.525H3.5V16.2C3.5 16.7724 3.50058 17.1566 3.52476 17.4525C3.54822 17.7396 3.5901 17.8769 3.63624 17.9675C3.75608 18.2027 3.94731 18.3939 4.18251 18.5137C4.27307 18.5599 4.41036 18.6018 4.69748 18.6252C4.99336 18.6494 5.37757 18.65 5.95 18.65H11.2502L11.2507 16.0259C9.57033 15.6792 8.30698 14.1913 8.30698 12.4082C8.30698 10.6254 9.56996 9.13756 11.25 8.79064V5.34998H5.95C5.37757 5.34998 4.99336 5.35056 4.69748 5.37473ZM12.75 5.34998V8.79027C14.4309 9.13651 15.6948 10.6247 15.6948 12.4082C15.6948 14.1914 14.4313 15.6794 12.7507 16.0259L12.7502 18.65H18.05C18.6224 18.65 19.0066 18.6494 19.3025 18.6252C19.5896 18.6018 19.7269 18.5599 19.8175 18.5137C20.0527 18.3939 20.2439 18.2027 20.3638 17.9675C20.4099 17.8769 20.4518 17.7396 20.4752 17.4525C20.4994 17.1566 20.5 16.7724 20.5 16.2V15.525H18.1232C17.709 15.525 17.3732 15.1892 17.3732 14.775V9.225C17.3732 9.02609 17.4523 8.83532 17.5929 8.69467C17.7336 8.55402 17.9243 8.475 18.1232 8.475L20.5 8.475V7.79998C20.5 7.22755 20.4994 6.84333 20.4752 6.54745C20.4518 6.26033 20.4099 6.12305 20.3638 6.03249C20.2439 5.79728 20.0527 5.60606 19.8175 5.48622C19.7269 5.44008 19.5896 5.39819 19.3025 5.37473C19.0066 5.35056 18.6224 5.34998 18.05 5.34998H12.75ZM20.5 9.975L18.8732 9.975V14.025H20.5V9.975ZM3.5 14.025H5.12676V9.975H3.5V14.025ZM12.0009 10.2143C10.7892 10.2143 9.80698 11.1965 9.80698 12.4082C9.80698 13.6198 10.7892 14.6021 12.0009 14.6021C13.2126 14.6021 14.1948 13.6198 14.1948 12.4082C14.1948 11.1965 13.2126 10.2143 12.0009 10.2143Z" fill="black"/>
</svg>
